<?xml version="1.0" encoding="utf-8"?>
<!-- Generator: Adobe Illustrator 22.0.1, SVG Export Plug-In . SVG Version: 6.00 Build 0)  -->
<svg version="1.1" id="Layer_1" xmlns="http://www.w3.org/2000/svg" xmlns:xlink="http://www.w3.org/1999/xlink" x="0px" y="0px"
	 viewBox="0 0 144 144" style="enable-background:new 0 0 144 144;" xml:space="preserve">
<style type="text/css">
	.st0{fill:#101010;}
	.st1{fill:#FFFFFF;stroke:#000000;stroke-miterlimit:10;}
</style>
<path class="st0" d="M112.489,83.422c-1.399-1.175-3.492-0.996-4.67,0.41l-32.503,38.735V12.325c0-1.831-1.484-3.315-3.315-3.315
	s-3.315,1.484-3.315,3.315v110.241L36.182,83.832c-1.178-1.403-3.27-1.586-4.671-0.41c-1.403,1.177-1.586,3.268-0.409,4.67
	l38.358,45.713c0.027,0.032,0.062,0.054,0.09,0.085c0.07,0.078,0.143,0.152,0.22,0.223c0.035,0.032,0.062,0.07,0.099,0.101
	c0.025,0.021,0.054,0.035,0.079,0.055c0.041,0.033,0.083,0.063,0.125,0.093c0.057,0.041,0.115,0.078,0.175,0.116
	c0.09,0.056,0.18,0.105,0.273,0.152c0.048,0.024,0.094,0.053,0.143,0.074c0.042,0.019,0.085,0.033,0.128,0.05
	c0.124,0.049,0.251,0.085,0.378,0.118c0.048,0.012,0.093,0.034,0.142,0.044c0.022,0.005,0.046,0.007,0.068,0.011
	c0.205,0.039,0.411,0.063,0.619,0.063c0,0,0.001,0,0.001,0c0,0,0.001,0,0.001,0s0.001,0,0.001,0s0.001,0,0.001,0
	c0.207,0,0.414-0.024,0.619-0.063c0.023-0.004,0.046-0.006,0.068-0.011c0.048-0.01,0.094-0.031,0.141-0.044
	c0.128-0.033,0.255-0.069,0.379-0.118c0.043-0.017,0.085-0.032,0.127-0.05c0.049-0.022,0.094-0.05,0.142-0.074
	c0.093-0.046,0.184-0.096,0.273-0.152c0.06-0.037,0.118-0.075,0.176-0.116c0.043-0.031,0.085-0.062,0.127-0.095
	c0.025-0.02,0.052-0.033,0.077-0.053c0.036-0.03,0.061-0.067,0.096-0.098c0.079-0.072,0.153-0.147,0.224-0.226
	c0.028-0.031,0.063-0.053,0.09-0.085l38.359-45.713C114.075,86.69,113.892,84.599,112.489,83.422z"/>
<line class="st1" x1="72" y1="72" x2="72" y2="72"/>
</svg>
