<?xml version="1.0" encoding="utf-8"?>
<!-- Generator: Adobe Illustrator 22.0.1, SVG Export Plug-In . SVG Version: 6.00 Build 0)  -->
<svg version="1.1" id="Layer_1" xmlns="http://www.w3.org/2000/svg" xmlns:xlink="http://www.w3.org/1999/xlink" x="0px" y="0px"
	 viewBox="0 0 144 144" style="enable-background:new 0 0 144 144;" xml:space="preserve">
<style type="text/css">
	.st0{fill:#101010;}
	.st1{fill:#FFFFFF;stroke:#000000;stroke-miterlimit:10;}
</style>
<path class="st0" d="M83.422,31.511c-1.175,1.399-0.996,3.492,0.41,4.67l38.735,32.503H12.326c-1.831,0-3.315,1.484-3.315,3.315
	c0,1.831,1.484,3.315,3.315,3.315h110.241l-38.735,32.503c-1.403,1.178-1.586,3.27-0.41,4.671c1.177,1.403,3.268,1.586,4.67,0.409
	l45.713-38.358c0.032-0.027,0.054-0.062,0.085-0.09c0.078-0.07,0.152-0.143,0.223-0.22c0.032-0.035,0.07-0.062,0.101-0.099
	c0.021-0.025,0.035-0.054,0.055-0.079c0.033-0.041,0.063-0.083,0.093-0.125c0.041-0.057,0.078-0.115,0.116-0.175
	c0.056-0.09,0.105-0.18,0.152-0.273c0.024-0.048,0.053-0.094,0.074-0.143c0.019-0.042,0.033-0.085,0.05-0.128
	c0.049-0.124,0.085-0.251,0.118-0.378c0.012-0.048,0.034-0.093,0.044-0.142c0.005-0.022,0.007-0.046,0.011-0.068
	c0.039-0.205,0.063-0.411,0.063-0.619c0,0,0-0.001,0-0.001c0,0,0-0.001,0-0.001c0,0,0-0.001,0-0.001c0,0,0-0.001,0-0.001
	c0-0.207-0.024-0.414-0.063-0.619c-0.004-0.023-0.006-0.046-0.011-0.068c-0.01-0.048-0.031-0.094-0.044-0.141
	c-0.033-0.128-0.069-0.255-0.118-0.379c-0.017-0.043-0.032-0.085-0.05-0.127c-0.022-0.049-0.05-0.094-0.074-0.142
	c-0.046-0.093-0.096-0.184-0.152-0.273c-0.037-0.06-0.075-0.118-0.116-0.176c-0.031-0.043-0.062-0.085-0.095-0.127
	c-0.02-0.025-0.033-0.052-0.053-0.077c-0.03-0.036-0.067-0.061-0.098-0.096c-0.072-0.079-0.147-0.153-0.226-0.224
	c-0.031-0.028-0.053-0.063-0.085-0.09L88.093,31.102C86.691,29.925,84.599,30.108,83.422,31.511z"/>
<line class="st1" x1="72" y1="72" x2="72" y2="72"/>
</svg>
